<svg id="Слой_1" data-name="Слой 1" xmlns="http://www.w3.org/2000/svg" viewBox="0 0 290 53"><defs><style>.cls-1{fill:#fff;}</style></defs><path class="cls-1" d="M13.08,50.12a22.91,22.91,0,0,1-9-8.54A23.45,23.45,0,0,1,.8,29.24,23.48,23.48,0,0,1,4.08,16.9a22.89,22.89,0,0,1,9-8.53A26.72,26.72,0,0,1,25.94,5.29,27,27,0,0,1,36.83,7.41,21.8,21.8,0,0,1,45,13.5l-6.88,6.35a14.79,14.79,0,0,0-11.65-5.43,15.44,15.44,0,0,0-7.67,1.89,13.37,13.37,0,0,0-5.26,5.26,15.44,15.44,0,0,0-1.89,7.67,15.45,15.45,0,0,0,1.89,7.68,13.44,13.44,0,0,0,5.26,5.26,15.43,15.43,0,0,0,7.67,1.88,14.72,14.72,0,0,0,11.65-5.49L45,44.92a21.41,21.41,0,0,1-8.2,6.16,27.3,27.3,0,0,1-10.92,2.11A26.58,26.58,0,0,1,13.08,50.12Z"/><path class="cls-1" d="M56.41,51.71a25.08,25.08,0,0,1-8.24-3.88l3.64-8.07a24.66,24.66,0,0,0,7.08,3.51,26.69,26.69,0,0,0,8.21,1.32q4.56,0,6.75-1.35A4.12,4.12,0,0,0,76,39.63a3.46,3.46,0,0,0-1.29-2.75,9.86,9.86,0,0,0-3.31-1.75q-2-.66-5.46-1.45a74.5,74.5,0,0,1-8.66-2.52,14.11,14.11,0,0,1-5.79-4,10.93,10.93,0,0,1-2.42-7.41,13,13,0,0,1,2.18-7.32,14.72,14.72,0,0,1,6.59-5.19A26.81,26.81,0,0,1,68.62,5.29a36,36,0,0,1,8.67,1.06,25.88,25.88,0,0,1,7.41,3l-3.31,8.14a25.9,25.9,0,0,0-12.84-3.64c-3,0-5.21.49-6.65,1.46a4.45,4.45,0,0,0-2.15,3.84,3.77,3.77,0,0,0,2.48,3.54A39.25,39.25,0,0,0,69.81,25a77.65,77.65,0,0,1,8.67,2.51,14.36,14.36,0,0,1,5.79,4,10.66,10.66,0,0,1,2.41,7.35,12.69,12.69,0,0,1-2.21,7.24,15,15,0,0,1-6.65,5.2A27.3,27.3,0,0,1,67,53.19,38,38,0,0,1,56.41,51.71Z"/><path class="cls-1" d="M98.62,51.71a25,25,0,0,1-8.23-3.88L94,39.76a24.4,24.4,0,0,0,7.08,3.51,26.58,26.58,0,0,0,8.2,1.32q4.56,0,6.75-1.35a4.12,4.12,0,0,0,2.18-3.61A3.46,3.46,0,0,0,117,36.88a9.86,9.86,0,0,0-3.31-1.75q-2-.66-5.46-1.45a75.7,75.7,0,0,1-8.66-2.52,14.11,14.11,0,0,1-5.79-4,10.93,10.93,0,0,1-2.42-7.41A12.91,12.91,0,0,1,93.5,12.4a14.69,14.69,0,0,1,6.58-5.19,26.84,26.84,0,0,1,10.75-1.92,35.86,35.86,0,0,1,8.67,1.06,25.88,25.88,0,0,1,7.41,3l-3.31,8.14a25.9,25.9,0,0,0-12.83-3.64q-4.5,0-6.65,1.46A4.43,4.43,0,0,0,102,19.19a3.76,3.76,0,0,0,2.48,3.54A38.88,38.88,0,0,0,112,25a77.65,77.65,0,0,1,8.67,2.51,14.36,14.36,0,0,1,5.79,4,10.66,10.66,0,0,1,2.41,7.35,12.61,12.61,0,0,1-2.21,7.24,15,15,0,0,1-6.65,5.2,27.3,27.3,0,0,1-10.79,1.91A38,38,0,0,1,98.62,51.71Z"/><path class="cls-1" d="M186.26,28.52h9.79V47.31a28,28,0,0,1-8.73,4.36,33.74,33.74,0,0,1-10,1.52,27.06,27.06,0,0,1-13-3.07,22.86,22.86,0,0,1-9-8.54,23.45,23.45,0,0,1-3.28-12.34,23.48,23.48,0,0,1,3.28-12.34,22.73,22.73,0,0,1,9.09-8.53,27.62,27.62,0,0,1,13.1-3.08,28.81,28.81,0,0,1,11,2.05,22,22,0,0,1,8.34,6L190,19.65a15.94,15.94,0,0,0-12-5.23,16.39,16.39,0,0,0-7.87,1.85,13.29,13.29,0,0,0-5.36,5.23,15.38,15.38,0,0,0-1.92,7.74,15.26,15.26,0,0,0,1.92,7.68,13.55,13.55,0,0,0,5.33,5.26,15.73,15.73,0,0,0,7.77,1.88,17.41,17.41,0,0,0,8.34-2Z"/><path class="cls-1" d="M220.1,17.6a18.55,18.55,0,0,1,7.24-1.33V25.8c-1.14-.09-1.91-.13-2.31-.13a9.48,9.48,0,0,0-6.95,2.48q-2.51,2.49-2.51,7.44V52.4H205.25V16.8h9.85v4.7A11.47,11.47,0,0,1,220.1,17.6Z"/><path class="cls-1" d="M234,10.19a5.37,5.37,0,0,1-1.79-4.1A5.39,5.39,0,0,1,234,2,6.55,6.55,0,0,1,238.66.33a6.71,6.71,0,0,1,4.63,1.59,5.1,5.1,0,0,1,1.79,4,5.6,5.6,0,0,1-1.79,4.26,6.46,6.46,0,0,1-4.63,1.69A6.55,6.55,0,0,1,234,10.19Zm-.53,6.61h10.32V52.4H233.5Z"/><path class="cls-1" d="M289.67,3.31V52.4h-9.86V48.3Q276,52.94,268.7,52.93a18.46,18.46,0,0,1-9.1-2.25,16.18,16.18,0,0,1-6.39-6.42,19.61,19.61,0,0,1-2.31-9.66,19.61,19.61,0,0,1,2.31-9.66,16.18,16.18,0,0,1,6.39-6.42,18.57,18.57,0,0,1,9.1-2.25q6.81,0,10.65,4.31V3.31ZM277,41.78a9.92,9.92,0,0,0,2.58-7.18A9.92,9.92,0,0,0,277,27.42a9.27,9.27,0,0,0-13,0,9.92,9.92,0,0,0-2.58,7.18,9.92,9.92,0,0,0,2.58,7.18,9.27,9.27,0,0,0,13,0Z"/></svg>